<svg width="32" height="32" viewBox="0 0 32 32" fill="none" xmlns="http://www.w3.org/2000/svg">
<circle cx="16" cy="16" r="16" fill="#CCF0FF"/>
<path d="M16 6C14.0222 6 12.0888 6.58649 10.4443 7.6853C8.79981 8.78412 7.51809 10.3459 6.76121 12.1732C6.00433 14.0004 5.8063 16.0111 6.19215 17.9509C6.578 19.8907 7.53041 21.6725 8.92894 23.0711C10.3275 24.4696 12.1093 25.422 14.0491 25.8078C15.9889 26.1937 17.9996 25.9957 19.8268 25.2388C21.6541 24.4819 23.2159 23.2002 24.3147 21.5557C25.4135 19.9112 26 17.9778 26 16C25.9949 13.3494 24.9397 10.8088 23.0655 8.93455C21.1912 7.06028 18.6506 6.00508 16 6ZM15.8077 10.6154C16.0359 10.6154 16.259 10.6831 16.4487 10.8098C16.6385 10.9366 16.7864 11.1168 16.8737 11.3277C16.961 11.5385 16.9839 11.7705 16.9394 11.9943C16.8948 12.2182 16.785 12.4238 16.6236 12.5851C16.4622 12.7465 16.2566 12.8564 16.0328 12.9009C15.809 12.9454 15.577 12.9226 15.3661 12.8352C15.1553 12.7479 14.9751 12.6 14.8483 12.4103C14.7215 12.2205 14.6538 11.9974 14.6538 11.7692C14.6538 11.4632 14.7754 11.1697 14.9918 10.9533C15.2082 10.7369 15.5017 10.6154 15.8077 10.6154ZM16.7692 21.3846H16C15.796 21.3846 15.6003 21.3036 15.4561 21.1593C15.3118 21.0151 15.2308 20.8194 15.2308 20.6154V16C15.0268 16 14.8311 15.919 14.6868 15.7747C14.5426 15.6304 14.4615 15.4348 14.4615 15.2308C14.4615 15.0268 14.5426 14.8311 14.6868 14.6868C14.8311 14.5426 15.0268 14.4615 15.2308 14.4615H16C16.204 14.4615 16.3997 14.5426 16.5439 14.6868C16.6882 14.8311 16.7692 15.0268 16.7692 15.2308V19.8462C16.9732 19.8462 17.1689 19.9272 17.3132 20.0715C17.4574 20.2157 17.5385 20.4114 17.5385 20.6154C17.5385 20.8194 17.4574 21.0151 17.3132 21.1593C17.1689 21.3036 16.9732 21.3846 16.7692 21.3846Z" fill="#01648E"/>
</svg>
