<svg width="235" height="261" viewBox="0 0 235 261" fill="none" xmlns="http://www.w3.org/2000/svg">
<g clip-path="url(#clip0_409_6476)">
<path d="M149.053 58.698H86.0001C84.5633 58.7 83.1858 59.3531 82.1697 60.5141C81.1537 61.6751 80.5822 63.2491 80.5804 64.8909V225.019L79.8578 225.271L64.3899 230.684C63.6569 230.939 62.8651 230.852 62.1883 230.441C61.5116 230.03 61.0053 229.329 60.7805 228.491L14.7707 56.7617C14.5468 55.9241 14.6231 55.0191 14.9828 54.2457C15.3426 53.4723 15.9564 52.8938 16.6893 52.6372L40.5252 44.2974L109.626 20.1285L133.462 11.7887C133.825 11.6612 134.206 11.6166 134.584 11.6576C134.962 11.6985 135.329 11.8242 135.664 12.0275C135.999 12.2307 136.296 12.5075 136.538 12.842C136.779 13.1765 136.961 13.5622 137.072 13.9769L148.833 57.8723L149.053 58.698Z" fill="#EBEBEC"/>
<path d="M162.812 57.8724L148.637 4.96842C148.401 4.08694 148.016 3.2672 147.503 2.55603C146.989 1.84487 146.359 1.25623 145.646 0.823737C144.934 0.391247 144.154 0.123385 143.351 0.0354667C142.548 -0.0524516 141.738 0.041297 140.966 0.311346L107.455 12.0325L38.357 36.2055L4.84518 47.9308C3.28839 48.477 1.98487 49.7067 1.22075 51.35C0.456617 52.9933 0.294305 54.9159 0.769445 56.6958L49.2144 237.5C49.6004 238.937 50.3792 240.194 51.4366 241.088C52.494 241.982 53.7742 242.465 55.0895 242.467C55.6983 242.467 56.3036 242.363 56.8851 242.157L79.8575 234.123L80.5801 233.867V233.004L79.8575 233.256L56.672 241.369C55.2979 241.847 53.8137 241.684 52.545 240.913C51.2763 240.143 50.3268 238.83 49.9046 237.261L1.46332 56.4522C1.25415 55.6748 1.18125 54.8578 1.24879 54.0481C1.31632 53.2384 1.52297 52.4519 1.8569 51.7336C2.19084 51.0153 2.6455 50.3793 3.19484 49.8621C3.74418 49.3448 4.37741 48.9565 5.05828 48.7193L38.5702 36.9941L107.668 12.8252L141.18 1.09992C141.696 0.919828 142.233 0.828003 142.773 0.827428C143.932 0.830402 145.059 1.25728 145.99 2.04554C146.922 2.83381 147.607 3.94203 147.947 5.20789L162.056 57.8725L162.28 58.6982H163.032L162.812 57.8724Z" fill="#3F3D56"/>
<path d="M44.8267 52.7722C44.1303 52.7717 43.4524 52.5161 42.8925 52.043C42.3325 51.57 41.92 50.9043 41.7153 50.1437L37.0615 32.7739C36.9364 32.3073 36.893 31.8171 36.9338 31.3314C36.9745 30.8456 37.0986 30.3738 37.299 29.9429C37.4993 29.5119 37.772 29.1303 38.1014 28.8198C38.4309 28.5093 38.8106 28.276 39.219 28.1332L102.788 5.89495C103.613 5.6074 104.504 5.70547 105.265 6.16763C106.027 6.62978 106.596 7.41827 106.85 8.36002L111.503 25.73C111.755 26.6723 111.669 27.6901 111.265 28.5602C110.86 29.4302 110.17 30.0814 109.346 30.3709L45.7768 52.6091C45.4689 52.7171 45.1487 52.7721 44.8267 52.7722Z" fill="#3f000f"/>
<path d="M69.2048 18.56C73.1958 18.56 76.4311 14.8632 76.4311 10.3028C76.4311 5.74248 73.1958 2.04559 69.2048 2.04559C65.2138 2.04559 61.9785 5.74248 61.9785 10.3028C61.9785 14.8632 65.2138 18.56 69.2048 18.56Z" fill="#153D6F"/>
<path d="M69.2048 15.5315C71.732 15.5315 73.7807 13.1905 73.7807 10.3028C73.7807 7.41505 71.732 5.07407 69.2048 5.07407C66.6776 5.07407 64.6289 7.41505 64.6289 10.3028C64.6289 13.1905 66.6776 15.5315 69.2048 15.5315Z" fill="white"/>
<path d="M218.241 240.357H96.1171C95.3028 240.356 94.5222 239.986 93.9464 239.328C93.3707 238.67 93.0468 237.778 93.0459 236.848V69.6389C93.0468 68.7085 93.3707 67.8165 93.9464 67.1586C94.5222 66.5007 95.3028 66.1306 96.1171 66.1295H218.241C219.055 66.1306 219.836 66.5007 220.412 67.1586C220.988 67.8165 221.311 68.7085 221.312 69.6389V236.848C221.311 237.778 220.987 238.67 220.412 239.328C219.836 239.986 219.055 240.356 218.241 240.357Z" fill="#EBEBEC"/>
<path d="M162.056 57.8723H85.9998C84.3714 57.8749 82.8104 58.6153 81.659 59.9309C80.5076 61.2466 79.8597 63.0303 79.8574 64.891V233.256L80.58 233.004V64.891C80.5818 63.2491 81.1534 61.6751 82.1694 60.5141C83.1854 59.3531 84.5629 58.7 85.9998 58.698H162.28L162.056 57.8723ZM228.357 57.8723H85.9998C84.3714 57.8749 82.8104 58.6153 81.659 59.9309C80.5076 61.2466 79.8597 63.0303 79.8574 64.891V253.981C79.8597 255.842 80.5076 257.626 81.659 258.941C82.8104 260.257 84.3714 260.997 85.9998 261H228.357C229.986 260.997 231.547 260.257 232.698 258.941C233.85 257.626 234.497 255.842 234.5 253.981V64.891C234.497 63.0303 233.85 61.2466 232.698 59.9309C231.547 58.6153 229.986 57.8749 228.357 57.8723ZM233.777 253.981C233.775 255.623 233.204 257.197 232.188 258.358C231.172 259.519 229.794 260.172 228.357 260.174H85.9998C84.5629 260.172 83.1854 259.519 82.1694 258.358C81.1534 257.197 80.5818 255.623 80.58 253.981V64.891C80.5818 63.2491 81.1534 61.6751 82.1694 60.5141C83.1854 59.3531 84.5629 58.7 85.9998 58.698H228.357C229.794 58.7 231.172 59.3531 232.188 60.5141C233.204 61.6751 233.775 63.2491 233.777 64.891V253.981Z" fill="#3F3D56"/>
<path d="M190.42 76.0382H123.938C123.076 76.0371 122.25 75.6453 121.64 74.9487C121.03 74.2521 120.687 73.3076 120.687 72.3225V54.1566C120.687 53.1714 121.03 52.227 121.64 51.5304C122.25 50.8338 123.076 50.4419 123.938 50.4408H190.42C191.282 50.4419 192.109 50.8338 192.718 51.5304C193.328 52.227 193.671 53.1714 193.672 54.1566V72.3225C193.671 73.3076 193.328 74.2521 192.718 74.9487C192.109 75.6453 191.282 76.0371 190.42 76.0382Z" fill="#3f000f"/>
<path d="M157.178 51.6794C161.169 51.6794 164.405 47.9825 164.405 43.4222C164.405 38.8619 161.169 35.165 157.178 35.165C153.187 35.165 149.952 38.8619 149.952 43.4222C149.952 47.9825 153.187 51.6794 157.178 51.6794Z" fill="#153D6F"/>
<path d="M157.179 48.4516C159.61 48.4516 161.58 46.1999 161.58 43.4222C161.58 40.6445 159.61 38.3928 157.179 38.3928C154.748 38.3928 152.777 40.6445 152.777 43.4222C152.777 46.1999 154.748 48.4516 157.179 48.4516Z" fill="white"/>
<rect width="108" height="4" rx="2" transform="matrix(1 0 0 -1 103.5 118)" fill="#5850EC" fill-opacity="0.13"/>
<rect width="108" height="4" rx="2" transform="matrix(1 0 0 -1 103.5 130)" fill="#5850EC" fill-opacity="0.13"/>
<rect width="108" height="4" rx="2" transform="matrix(1 0 0 -1 103.5 142)" fill="#5850EC" fill-opacity="0.13"/>
<rect width="108" height="4" rx="2" transform="matrix(1 0 0 -1 103.5 154)" fill="#5850EC" fill-opacity="0.13"/>
<rect width="108" height="4" rx="2" transform="matrix(1 0 0 -1 103.5 168)" fill="#5850EC" fill-opacity="0.13"/>
<rect width="108" height="4" rx="2" transform="matrix(1 0 0 -1 103.5 180)" fill="#5850EC" fill-opacity="0.13"/>
</g>
<defs>
<clipPath id="clip0_409_6476">
<rect width="234" height="261" fill="white" transform="translate(0.5)"/>
</clipPath>
</defs>
</svg>
