<svg width="34" height="38" viewBox="0 0 34 38" fill="none" xmlns="http://www.w3.org/2000/svg">
<path d="M31.2176 37.8045H11.1667C10.4579 37.8038 9.77826 37.5219 9.27705 37.0207C8.77583 36.5195 8.49394 35.8399 8.49323 35.1311V27.1107H11.1667V35.1311H31.2176V5.72304H19.187V3.04958H31.2176C31.9264 3.05029 32.606 3.33218 33.1072 3.8334C33.6084 4.33462 33.8903 5.01421 33.891 5.72304V35.1311C33.8903 35.8399 33.6084 36.5195 33.1072 37.0207C32.606 37.5219 31.9264 37.8038 31.2176 37.8045Z" fill="#3f000f"/>
<path d="M17.7876 11.07H27.1447V13.7435H17.7876V11.07ZM16.4509 17.7537H27.1447V20.4271H16.4509V17.7537ZM15.1142 24.4373H27.1447V27.1108H15.1142V24.4373ZM7.09379 23.1006C5.32173 23.0988 3.62274 22.3941 2.3697 21.1411C1.11666 19.888 0.411926 18.189 0.410156 16.417V1.71295H3.08361V16.417C3.08361 17.4805 3.50611 18.5005 4.25817 19.2526C5.01022 20.0046 6.03023 20.4271 7.09379 20.4271C8.15736 20.4271 9.17737 20.0046 9.92942 19.2526C10.6815 18.5005 11.104 17.4805 11.104 16.417V4.3864C11.104 4.03188 10.9631 3.69188 10.7125 3.4412C10.4618 3.19051 10.1218 3.04968 9.76725 3.04968C9.41273 3.04968 9.07273 3.19051 8.82204 3.4412C8.57136 3.69188 8.43052 4.03188 8.43052 4.3864V17.7537H5.75707V4.3864C5.75707 3.32284 6.17957 2.30283 6.93162 1.55078C7.68368 0.798721 8.70368 0.376221 9.76725 0.376221C10.8308 0.376221 11.8508 0.798721 12.6029 1.55078C13.3549 2.30283 13.7774 3.32284 13.7774 4.3864V16.417C13.7757 18.189 13.0709 19.888 11.8179 21.1411C10.5648 22.3941 8.86586 23.0988 7.09379 23.1006Z" fill="#3f000f"/>
</svg>
