<svg width="32" height="32" viewBox="0 0 32 32" fill="none" xmlns="http://www.w3.org/2000/svg">
<circle cx="16" cy="16" r="16" fill="#FEEED7"/>
<path d="M16 6C14.0222 6 12.0888 6.58649 10.4443 7.6853C8.79981 8.78412 7.51809 10.3459 6.76121 12.1732C6.00433 14.0004 5.8063 16.0111 6.19215 17.9509C6.578 19.8907 7.53041 21.6725 8.92894 23.0711C10.3275 24.4696 12.1093 25.422 14.0491 25.8078C15.9889 26.1937 17.9996 25.9957 19.8268 25.2388C21.6541 24.4819 23.2159 23.2002 24.3147 21.5557C25.4135 19.9112 26 17.9778 26 16C25.9949 13.3494 24.9397 10.8088 23.0655 8.93455C21.1912 7.06028 18.6506 6.00508 16 6ZM15.2308 11.3846C15.2308 11.1806 15.3118 10.9849 15.4561 10.8407C15.6003 10.6964 15.796 10.6154 16 10.6154C16.204 10.6154 16.3997 10.6964 16.5439 10.8407C16.6882 10.9849 16.7692 11.1806 16.7692 11.3846V16.7692C16.7692 16.9732 16.6882 17.1689 16.5439 17.3132C16.3997 17.4574 16.204 17.5385 16 17.5385C15.796 17.5385 15.6003 17.4574 15.4561 17.3132C15.3118 17.1689 15.2308 16.9732 15.2308 16.7692V11.3846ZM16 21.3846C15.7718 21.3846 15.5487 21.3169 15.359 21.1902C15.1692 21.0634 15.0213 20.8832 14.934 20.6723C14.8467 20.4615 14.8238 20.2295 14.8683 20.0057C14.9128 19.7818 15.0227 19.5762 15.1841 19.4149C15.3455 19.2535 15.5511 19.1436 15.7749 19.0991C15.9987 19.0546 16.2307 19.0774 16.4416 19.1648C16.6524 19.2521 16.8326 19.4 16.9594 19.5897C17.0862 19.7795 17.1538 20.0026 17.1538 20.2308C17.1538 20.5368 17.0323 20.8303 16.8159 21.0467C16.5995 21.263 16.306 21.3846 16 21.3846Z" fill="#C27605"/>
</svg>
