<svg width="32" height="32" viewBox="0 0 32 32" fill="none" xmlns="http://www.w3.org/2000/svg">
<circle cx="16" cy="16" r="16" fill="#D9FFCC"/>
<path d="M16 6C14.0222 6 12.0888 6.58649 10.4443 7.6853C8.79981 8.78412 7.51809 10.3459 6.76121 12.1732C6.00433 14.0004 5.8063 16.0111 6.19215 17.9509C6.578 19.8907 7.53041 21.6725 8.92894 23.0711C10.3275 24.4696 12.1093 25.422 14.0491 25.8078C15.9889 26.1937 17.9996 25.9957 19.8268 25.2388C21.6541 24.4819 23.2159 23.2002 24.3147 21.5557C25.4135 19.9112 26 17.9778 26 16C25.9949 13.3494 24.9397 10.8088 23.0655 8.93455C21.1912 7.06028 18.6506 6.00508 16 6ZM20.7596 14.25L15.125 19.6346C14.9793 19.7716 14.7865 19.8474 14.5865 19.8462C14.4888 19.8476 14.3917 19.8296 14.301 19.7933C14.2102 19.757 14.1275 19.703 14.0577 19.6346L11.2404 16.9423C11.1622 16.8741 11.0987 16.7909 11.0536 16.6975C11.0084 16.6041 10.9826 16.5026 10.9777 16.399C10.9728 16.2954 10.9889 16.1919 11.025 16.0947C11.0612 15.9975 11.1166 15.9086 11.1879 15.8334C11.2593 15.7581 11.3451 15.6981 11.4403 15.6568C11.5354 15.6156 11.6379 15.5941 11.7416 15.5935C11.8453 15.5928 11.9481 15.6132 12.0437 15.6533C12.1393 15.6935 12.2259 15.7525 12.2981 15.8269L14.5865 18.0096L19.7019 13.1346C19.8515 13.0041 20.0457 12.9365 20.244 12.9459C20.4423 12.9553 20.6292 13.0409 20.7658 13.1849C20.9024 13.329 20.978 13.5202 20.9768 13.7187C20.9757 13.9172 20.8979 14.1076 20.7596 14.25Z" fill="#28A745"/>
</svg>
